<svg width="59" height="43" viewBox="0 0 59 43" fill="none" xmlns="http://www.w3.org/2000/svg">
<path d="M29.4521 35.1078L52.9168 41.3952L42.9992 31.4775L29.4521 35.1078Z" fill="url(#paint0_linear_108001_280)"/>
<path d="M52.9168 41.3954L58.9042 43L47.3828 0L29.4521 17.9307L52.9168 41.3954Z" fill="url(#paint1_linear_108001_280)"/>
<path d="M56.5617 34.2575L56.4305 33.7675C44.4241 27.0592 40.3456 11.7856 47.382 0L46.4302 0.951885C43.5805 6.34872 42.8238 12.5909 44.3253 18.5417C45.9973 25.169 50.2846 30.7508 56.2524 34.0854L56.5617 34.2575Z" fill="#FFFF00"/>
<path d="M42.9991 31.4777L5.9873 41.3954L29.452 17.9307L42.9991 31.4777Z" fill="url(#paint2_linear_108001_280)"/>
<path d="M5.9874 41.3954L0 43L11.5214 0L29.4521 17.9307L5.9874 41.3954Z" fill="url(#paint3_linear_108001_280)"/>
<path d="M5.98732 41.3954L5.27319 41.5871L29.1904 17.6691L29.452 17.9307L5.98732 41.3954Z" fill="#F98AFE"/>
<path d="M5.9873 41.3954L8.3947 38.9888L15.9049 31.4777L29.452 17.9307L18.4103 32.1492L12.6087 39.6211L7.19143 41.0724L5.9873 41.3954Z" fill="#1E003D"/>
<path d="M33.2486 36.1253L29.4521 35.1078L42.9992 31.4775L33.2486 36.1253Z" fill="#1E003D"/>
<path d="M52.9168 41.3953L53.631 41.587L29.7138 17.6689L29.4521 17.9306L52.9168 41.3953Z" fill="#FFFF00"/>
<path d="M52.9167 41.3954L29.4589 17.9375L27.5227 19.86L52.9167 41.3954Z" fill="#1E003D"/>
<path d="M56.4306 33.7675L53.1429 21.4996L47.3822 0C40.4838 11.5547 44.2589 26.5138 55.8136 33.4122C56.0181 33.534 56.2235 33.6525 56.4306 33.7675Z" fill="url(#paint4_linear_108001_280)"/>
<path d="M56.4306 33.7675L55.2699 29.4359C46.443 22.7386 42.8997 10.6906 47.3822 0C40.4838 11.5547 44.2589 26.5138 55.8136 33.4122C56.0181 33.534 56.2235 33.6525 56.4306 33.7675Z" fill="#740107"/>
<path d="M2.47266 33.7675L11.5211 0C18.5575 11.7856 14.479 27.0592 2.47266 33.7675Z" fill="url(#paint5_linear_108001_280)"/>
<path d="M2.47266 33.7675L3.63333 29.4359C12.4602 22.7386 16.0035 10.6906 11.5211 0C18.4194 11.5547 14.6443 26.5138 3.08964 33.4122C2.88511 33.534 2.67974 33.6525 2.47266 33.7675Z" fill="#1E003D"/>
<path d="M2.34203 34.2575L2.47326 33.7675C14.4796 27.0592 18.5581 11.7856 11.5217 0L12.4736 0.951885C15.3232 6.34872 16.08 12.5909 14.5784 18.5417C12.9065 25.169 8.61916 30.7508 2.65137 34.0854L2.34203 34.2575Z" fill="#F98AFE"/>
<path d="M11.5215 0L29.4513 17.9298L27.793 19.5898C23.7042 23.0778 17.9989 24.0612 12.9753 22.1404C15.9579 15.2105 15.6954 6.99126 11.5215 0Z" fill="#F98AFE"/>
<path d="M47.3829 0L29.4531 17.9298L31.1114 19.5898C35.2001 23.0778 40.9063 24.0612 45.9299 22.1404C42.9447 15.2028 43.2157 6.98018 47.3829 0Z" fill="#FFFF00"/>
<defs>
<linearGradient id="paint0_linear_108001_280" x1="64.5005" y1="48.1894" x2="14.5228" y2="21.8584" gradientUnits="userSpaceOnUse">
<stop stop-color="#5E17A9"/>
<stop offset="1" stop-color="#1E003D"/>
</linearGradient>
<linearGradient id="paint1_linear_108001_280" x1="44.1784" y1="49.5643" x2="44.1775" y2="-34.117" gradientUnits="userSpaceOnUse">
<stop stop-color="#FF2966"/>
<stop offset="1" stop-color="#FFFF00"/>
</linearGradient>
<linearGradient id="paint2_linear_108001_280" x1="9.42194" y1="21.3655" x2="50.8079" y2="62.7506" gradientUnits="userSpaceOnUse">
<stop stop-color="#5E17A9"/>
<stop offset="1" stop-color="#1E003D"/>
</linearGradient>
<linearGradient id="paint3_linear_108001_280" x1="14.726" y1="42.1742" x2="14.726" y2="-41.8486" gradientUnits="userSpaceOnUse">
<stop stop-color="#5E17A9"/>
<stop offset="1" stop-color="#FF2966"/>
</linearGradient>
<linearGradient id="paint4_linear_108001_280" x1="55.7556" y1="0.719203" x2="43.6973" y2="45.7217" gradientUnits="userSpaceOnUse">
<stop stop-color="#FF2966"/>
<stop offset="1" stop-color="#C40015"/>
</linearGradient>
<linearGradient id="paint5_linear_108001_280" x1="15.2448" y1="0.376688" x2="2.17324" y2="49.1648" gradientUnits="userSpaceOnUse">
<stop stop-color="#5E17A9"/>
<stop offset="1" stop-color="#1E003D"/>
</linearGradient>
</defs>
</svg>
